# xmcd CD database file
#
# Track frame offsets:
#	150
#	39650
#	60695
#	125500
#	157125
#	174795
#	209052
#	255982
#	272162
#
# Disc length: 3971 seconds
#
# Revision: 0
# Processed by: cddbd v1.5.2PL0 Copyright (c) Steve Scherf et al.
# Submitted via: CDex 1.70beta2
#
DISCID=810f8109
DTITLE=John Surman - Such winters of mer
DYEAR=1983
DGENRE=Jazz
TTITLE0=Saturday night
TTITLE1=Sunday morning
TTITLE2=My friend
TTITLE3=Seaside poscards 1951
TTITLE4=On the wing again
TTITLE5=Expressions
TTITLE6=Mother of light - Persepolis
TTITLE7=??
TTITLE8=???
EXTD=YEAR: 1983
EXTT0=
EXTT1=
EXTT2=
EXTT3=
EXTT4=
EXTT5=
EXTT6=
EXTT7=
EXTT8=
PLAYORDER=
